<svg xmlns="http://www.w3.org/2000/svg" viewBox="16 8 88 88"><rect x="16" y="8" width="88" height="88" rx="20" fill="#3B2A1D"/><path fill="#C9882F" d="M42 26C30 24 20 38 24 56c2 10 14 10 18 0 3-10 8-28 0-30Z"/><path fill="#C9882F" d="M78 26c12-2 22 12 18 30-2 10-14 10-18 0-3-10-8-28 0-30Z"/><path fill="#E8694C" d="M40 66Q60 80 80 66L74 80Q60 88 46 80Z"/><circle cx="60" cy="46" r="30" fill="#E8A94E"/><path fill="#E8A94E" d="M36 30Q40 16 48 26Q54 14 60 25Q66 14 72 26Q80 16 84 30Z"/><ellipse cx="50" cy="46" rx="12" ry="13" fill="#CE9038"/><circle cx="50" cy="47" r="6" fill="#33251A"/><circle cx="70" cy="47" r="6" fill="#33251A"/><circle cx="52.3" cy="44.7" r="2" fill="#FFFDF8"/><circle cx="72.3" cy="44.7" r="2" fill="#FFFDF8"/><ellipse cx="60" cy="58" rx="14" ry="11" fill="#F8E7C4"/><ellipse cx="60" cy="53" rx="4.5" ry="3.4" fill="#33251A"/><path d="M60 56V60M60 60Q54 64 50 59M60 60Q66 64 70 59" stroke="#33251A" stroke-width="1.8" fill="none" stroke-linecap="round" stroke-linejoin="round"/><path d="M57 61Q60 67 63 61Z" fill="#E89A8C"/></svg>